<svg width="500" height="500" version="1.1" xmlns="http://www.w3.org/2000/svg" desc="Created with imagetracer.js version 1.2.6" ><path fill="rgb(0,0,0)" stroke="rgb(0,0,0)" stroke-width="1" opacity="0" d="M 0 0 L 500 0 L 500 500 L 0 500 L 0 0 Z M 280 190 L 280 260 L 303 264 Q 314 268 323 275 L 324 274 L 324 205 L 321 201 L 303 193 L 295 191 L 280 190 Z M 363 190 L 362 191 L 351 192 L 339 196 L 326 204 L 326 274 L 328 275 L 345 265 L 361 261 L 367 261 L 371 259 L 371 262 L 352 265 L 339 270 L 337 274 L 354 271 L 365 271 L 366 270 L 370 271 L 384 271 L 384 270 L 387 268 L 386 265 Q 383 266 384 262 L 389 258 L 388 262 Q 387 269 391 270 L 406 259 L 406 269 L 412 268 L 461 233 L 463 230 L 408 190 L 406 192 L 406 201 Q 399 193 389 190 L 389 202 L 373 190 L 371 191 Q 369 188 363 190 Z M 176 191 L 176 193 L 187 204 L 188 216 L 189 205 L 216 234 Q 215 236 218 235 L 218 237 L 252 271 L 252 191 L 232 192 L 236 194 L 244 204 L 248 212 L 251 224 L 251 234 L 209 192 L 207 191 L 176 191 Z M 67 194 L 53 201 L 45 210 L 41 219 Q 42 223 40 225 Q 38 248 48 260 Q 55 268 68 271 L 73 271 L 69 269 L 66 266 L 65 256 L 65 254 L 66 251 L 65 250 L 65 238 L 65 234 L 66 208 L 66 206 L 65 204 L 67 198 L 72 195 L 67 194 Z M 138 194 L 138 195 L 142 195 L 138 194 Z M 150 194 L 150 195 L 156 196 L 163 201 L 171 214 L 172 214 L 172 202 L 171 201 Q 172 194 171 194 L 150 194 Z M 86 195 L 87 196 L 91 203 L 91 213 L 88 222 L 89 224 L 104 201 Q 97 196 86 195 Z M 133 195 L 122 200 Q 114 205 112 216 Q 111 230 119 237 L 130 244 L 159 253 L 167 259 Q 168 265 165 268 Q 162 271 157 272 L 157 273 Q 167 272 174 267 Q 179 263 182 255 L 182 245 L 178 236 Q 171 227 160 223 L 146 219 L 132 213 L 127 208 L 129 201 L 137 196 L 133 195 Z M 266 206 L 266 271 L 280 271 L 281 270 L 297 271 L 312 274 L 313 271 L 296 264 L 278 262 L 278 234 L 277 233 L 277 225 L 278 224 L 278 209 L 277 208 L 277 206 L 266 206 Z M 188 230 L 187 271 L 207 271 L 205 269 Q 188 257 188 230 Z M 105 244 Q 102 255 95 263 Q 92 268 85 269 L 85 270 L 93 269 L 103 264 L 105 258 L 105 244 Z M 119 247 L 107 258 Q 115 265 126 270 L 128 270 L 126 268 L 121 264 L 118 255 L 120 248 L 119 247 Z M 82 270 L 82 271 L 84 271 L 82 270 Z M 129 270 L 129 271 L 131 271 L 129 270 Z M 135 272 L 135 273 L 137 273 L 135 272 Z M 141 273 L 141 274 L 156 274 L 141 273 Z M 131 292 L 131 312 L 131 313 L 138 313 L 138 293 L 137 293 L 131 292 Z M 153 292 L 152 313 L 153 313 L 159 313 L 159 294 L 158 293 L 156 293 L 153 292 Z M 162 292 L 162 293 L 168 297 L 168 294 Q 167 291 162 292 Z M 175 292 L 169 293 L 169 313 L 176 313 L 176 293 L 175 292 Z M 181 292 Q 179 295 182 294 L 185 297 Q 186 292 184 293 L 181 292 Z M 189 292 L 187 294 L 187 312 L 186 313 L 194 313 L 194 293 L 193 292 L 189 292 Z M 238 292 L 235 293 L 235 309 L 236 311 L 241 313 L 247 313 L 244 311 L 242 310 L 242 294 L 240 292 L 238 292 Z M 249 292 L 247 294 L 251 299 L 251 294 L 249 292 Z M 291 292 L 289 294 L 289 313 L 296 313 L 296 293 L 293 292 L 291 292 Z M 299 292 Q 299 295 303 295 L 305 297 Q 306 293 304 292 L 301 293 L 299 292 Z M 327 292 L 325 294 L 326 297 L 332 293 L 327 292 Z M 333 292 L 333 313 L 340 313 L 340 294 Q 339 291 338 293 L 333 292 Z M 342 292 L 347 297 Q 349 296 348 300 L 348 302 L 349 306 L 348 313 L 356 313 L 355 312 L 355 293 L 350 292 L 348 295 L 347 295 L 347 292 L 342 292 Z M 374 292 Q 380 304 393 313 L 393 303 L 388 300 Q 389 297 387 298 L 384 294 L 381 292 L 374 292 Z M 389 292 L 392 301 L 393 301 L 393 292 L 389 292 Z M 99 293 L 97 294 L 93 299 Q 92 306 94 310 L 100 313 L 100 294 L 99 293 Z M 106 293 L 107 299 Q 110 298 109 294 L 106 293 Z M 116 293 L 121 312 Q 123 315 129 313 L 124 295 Q 122 291 116 293 Z M 142 293 Q 143 295 142 304 L 139 305 L 139 308 L 144 313 L 151 313 L 147 307 L 144 305 L 149 301 L 148 296 Q 147 292 142 293 Z M 198 293 Q 199 295 198 304 L 195 305 L 195 308 L 200 313 L 207 313 L 203 307 L 200 305 L 205 301 L 204 296 Q 203 292 198 293 Z M 220 293 L 215 299 L 216 303 Q 219 308 228 308 Q 232 310 229 312 Q 228 314 231 313 L 234 309 L 233 304 L 220 297 L 221 294 L 220 293 Z M 228 293 L 231 297 Q 233 291 228 293 Z M 258 293 L 256 294 L 252 299 Q 251 306 253 310 L 259 313 L 259 294 L 258 293 Z M 265 293 L 266 299 L 268 294 L 265 293 Z M 276 293 L 274 294 L 270 300 L 271 309 L 278 313 L 277 312 L 277 294 L 276 293 Z M 283 293 L 284 300 L 287 295 L 283 293 Z M 312 293 L 310 294 Q 306 296 307 302 Q 311 308 320 309 Q 322 308 321 312 L 321 313 L 324 312 L 326 309 L 325 305 L 322 301 L 311 297 L 313 294 L 312 293 Z M 320 293 L 322 298 L 323 298 Q 325 291 320 293 Z M 362 293 L 356 300 L 357 309 L 364 313 L 363 312 L 363 295 L 364 294 L 362 293 Z M 367 293 L 367 312 L 367 313 L 370 312 L 374 307 Q 375 299 372 296 L 367 293 Z M 166 300 L 161 303 L 166 305 L 166 300 Z M 183 300 L 178 303 L 183 305 L 183 300 Z M 301 301 L 297 303 L 301 304 L 302 305 Q 303 300 301 301 Z M 262 304 L 262 313 L 266 312 L 268 313 L 269 313 L 269 305 L 262 304 Z M 280 304 L 281 307 L 280 313 L 284 312 L 286 313 L 287 313 L 287 305 L 280 304 Z M 376 305 L 375 313 L 380 313 L 376 305 Z M 110 306 L 109 309 L 106 313 L 110 311 L 110 306 Z M 217 307 L 214 310 L 217 311 L 218 312 L 217 307 Z M 309 307 Q 304 310 309 312 L 310 312 L 309 307 Z M 112 308 L 110 313 L 115 313 L 112 308 Z M 168 308 L 167 310 L 161 313 L 168 313 L 168 308 Z M 185 308 L 184 310 L 178 313 L 185 313 L 185 308 Z M 305 308 Q 303 312 298 313 L 305 313 L 305 308 Z " /><path fill="rgb(0,0,0)" stroke="rgb(0,0,0)" stroke-width="1" opacity="0" d="M 408.5 192 Q 433 212.5 460 229 Q 461.1 231.7 458.5 231 L 408 267 L 408 257.5 L 410.5 255 L 445 230.5 L 441.5 226 L 408 203 L 408.5 192 Z " /><path fill="rgb(0,0,0)" stroke="rgb(0,0,0)" stroke-width="1" opacity="0" d="M 391 193 L 393 193 Q 391.9 195.7 394.5 195 L 406 203.5 L 405.5 214 L 391 203.5 L 391 193 Z " /><path fill="rgb(0,0,0)" stroke="rgb(0,0,0)" stroke-width="1" opacity="0" d="M 283 194 Q 306.5 194.2 320 205.5 L 319.5 269 L 304.5 261 L 283 257 L 283 194 Z " /><path fill="rgb(0,0,0)" stroke="rgb(0,0,0)" stroke-width="1" opacity="0" d="M 357.5 194 L 366.5 194 L 367 194.5 L 367 257 L 348.5 260 L 329 269 L 329 205.5 L 330.5 205 L 340.5 199 L 357.5 194 Z " /><path fill="rgb(0,0,0)" stroke="rgb(0,0,0)" stroke-width="1" opacity="0" d="M 408.5 205 L 442 229.5 L 440.5 232 L 408.5 255 L 408 244.5 L 427 231 Q 428.1 228.3 425.5 229 L 408 215.5 L 408.5 205 Z " /><path fill="rgb(0,0,0)" stroke="rgb(0,0,0)" stroke-width="1" opacity="0" d="M 269 209 L 274 209.5 L 274 264.5 L 275.5 266 L 286 266.5 L 269 267 L 269 209 Z " /><path fill="rgb(0,0,0)" stroke="rgb(0,0,0)" stroke-width="1" opacity="0" d="M 405.5 246 L 406 255.5 L 391.5 267 L 391 256.5 L 405.5 246 Z " /><path fill="rgb(0,0,0)" stroke="rgb(0,0,0)" stroke-width="1" opacity="0" d="M 363.5 266 L 369 266.5 L 363.5 267 L 363.5 266 Z " /><path fill="rgb(163,108,135)" stroke="rgb(163,108,135)" stroke-width="1" opacity="0.8" d="M 280 190 L 294.5 191 L 302.5 193 L 320.5 201 L 324 204.5 L 324 273.5 L 322.5 275 Q 314.1 267.9 302.5 264 L 280 260 L 280 190 Z M 283 194 L 283 257 L 305 261 L 320 269 L 320 206 Q 306 194 283 194 Z " /><path fill="rgb(163,108,135)" stroke="rgb(163,108,135)" stroke-width="1" opacity="0.8" d="M 362.5 190 Q 368.7 188.3 370.5 191 L 372.5 190 L 388.5 202 L 389 190 Q 399 193.4 405.5 201 L 406 191.5 L 407.5 190 L 463 229.5 L 460.5 233 L 411.5 268 L 406 269 L 405.5 259 L 390.5 270 Q 386.5 268.5 388 261.5 L 389 258 L 384 261.5 Q 382.5 265.9 385.5 265 L 387 268 L 384 269.5 L 383.5 271 L 369.5 271 L 365.5 270 L 364.5 271 L 353.5 271 L 337 274 L 338.5 270 L 351.5 265 L 371 262 L 370.5 259 L 366.5 261 L 360.5 261 L 344.5 265 L 327.5 275 L 326 273.5 L 326 203.5 L 338.5 196 L 350.5 192 L 361.5 191 L 362.5 190 Z M 409 192 L 408 203 L 442 226 L 445 231 L 411 255 L 408 258 L 408 267 L 459 231 Q 461 232 460 229 Q 433 212 409 192 Z M 391 193 L 391 204 L 406 214 L 406 204 L 395 195 Q 392 196 393 193 L 391 193 Z M 358 194 L 341 199 L 331 205 L 329 206 L 329 269 L 349 260 L 367 257 L 367 195 L 367 194 L 358 194 Z M 409 205 L 408 216 L 426 229 Q 428 228 427 231 L 408 245 L 409 255 L 441 232 L 442 230 L 409 205 Z M 406 246 L 391 257 L 392 267 L 406 256 L 406 246 Z M 364 266 L 364 267 L 369 267 L 364 266 Z " /><path fill="rgb(163,108,135)" stroke="rgb(163,108,135)" stroke-width="1" opacity="0.8" d="M 266 206 L 276.5 206 L 277 207.5 L 278 208.5 L 278 223.5 L 277 224.5 L 277 232.5 L 278 233.5 L 278 262 L 295.5 264 L 313 271 L 311.5 274 L 296.5 271 L 280.5 270 L 279.5 271 L 266 271 L 266 206 Z M 269 209 L 269 267 L 286 267 L 276 266 L 274 265 L 274 210 L 269 209 Z " /><path fill="rgb(4,4,4)" stroke="rgb(4,4,4)" stroke-width="1" opacity="0.7450980392156863" d="M 176 191 L 207 191.5 L 177 192.5 L 180.5 197 L 176 191 Z " /><path fill="rgb(4,4,4)" stroke="rgb(4,4,4)" stroke-width="1" opacity="0.7450980392156863" d="M 232.5 191 L 251.5 191 L 252 191.5 L 252 270.5 L 243 262.5 L 251 268.5 L 251 235.5 L 208 192.5 L 251 233.5 L 250 219.5 L 251 218.5 L 251 192 L 234 192.5 L 234.5 194 L 232.5 191 Z " /><path fill="rgb(4,4,4)" stroke="rgb(4,4,4)" stroke-width="1" opacity="0.7450980392156863" d="M 66.5 194 Q 69.8 192.9 69 195.5 L 67 196.5 L 67.5 195 L 66.5 194 Z " /><path fill="rgb(4,4,4)" stroke="rgb(4,4,4)" stroke-width="1" opacity="0.7450980392156863" d="M 137.5 194 L 142 194.5 L 136.5 196 L 137.5 194 Z " /><path fill="rgb(4,4,4)" stroke="rgb(4,4,4)" stroke-width="1" opacity="0.7450980392156863" d="M 157.5 194 L 171 194.5 L 157.5 195 L 157.5 194 Z " /><path fill="rgb(4,4,4)" stroke="rgb(4,4,4)" stroke-width="1" opacity="0.7450980392156863" d="M 132.5 195 L 135 196.5 L 133.5 196 L 132.5 195 Z " /><path fill="rgb(4,4,4)" stroke="rgb(4,4,4)" stroke-width="1" opacity="0.7450980392156863" d="M 237.5 195 L 240.5 199 L 237.5 195 Z " /><path fill="rgb(4,4,4)" stroke="rgb(4,4,4)" stroke-width="1" opacity="0.7450980392156863" d="M 126.5 197 L 128 197.5 L 125.5 199 L 126.5 197 Z " /><path fill="rgb(4,4,4)" stroke="rgb(4,4,4)" stroke-width="1" opacity="0.7450980392156863" d="M 159.5 198 L 161.5 201 L 159.5 198 Z " /><path fill="rgb(4,4,4)" stroke="rgb(4,4,4)" stroke-width="1" opacity="0.7450980392156863" d="M 65.5 200 L 66 202.5 L 65 202.5 L 65.5 200 Z " /><path fill="rgb(4,4,4)" stroke="rgb(4,4,4)" stroke-width="1" opacity="0.7450980392156863" d="M 121.5 200 L 116.5 206 L 121.5 200 Z " /><path fill="rgb(4,4,4)" stroke="rgb(4,4,4)" stroke-width="1" opacity="0.7450980392156863" d="M 52.5 201 L 48.5 206 L 52.5 201 Z " /><path fill="rgb(4,4,4)" stroke="rgb(4,4,4)" stroke-width="1" opacity="0.7450980392156863" d="M 103.5 201 L 104 202.5 L 102 203.5 L 103.5 201 Z " /><path fill="rgb(4,4,4)" stroke="rgb(4,4,4)" stroke-width="1" opacity="0.7450980392156863" d="M 171.5 201 L 172 212 L 170 211.5 L 171 210.5 L 171.5 201 Z " /><path fill="rgb(4,4,4)" stroke="rgb(4,4,4)" stroke-width="1" opacity="0.7450980392156863" d="M 242.5 201 L 243.5 203 L 242.5 201 Z " /><path fill="rgb(4,4,4)" stroke="rgb(4,4,4)" stroke-width="1" opacity="0.7450980392156863" d="M 163.5 202 L 166.5 206 L 163.5 202 Z " /><path fill="rgb(4,4,4)" stroke="rgb(4,4,4)" stroke-width="1" opacity="0.7450980392156863" d="M 91.5 204 L 92 209.5 L 91 209.5 L 91.5 204 Z " /><path fill="rgb(4,4,4)" stroke="rgb(4,4,4)" stroke-width="1" opacity="0.7450980392156863" d="M 187.5 204 L 188 215.5 L 187 215.5 L 187.5 204 Z " /><path fill="rgb(4,4,4)" stroke="rgb(4,4,4)" stroke-width="1" opacity="0.7450980392156863" d="M 100.5 206 L 99.5 208 L 100.5 206 Z " /><path fill="rgb(4,4,4)" stroke="rgb(4,4,4)" stroke-width="1" opacity="0.7450980392156863" d="M 245.5 206 L 247 208.5 L 246 208.5 L 245.5 206 Z " /><path fill="rgb(4,4,4)" stroke="rgb(4,4,4)" stroke-width="1" opacity="0.7450980392156863" d="M 65.5 207 L 66 215.5 L 65 215.5 L 65.5 207 Z " /><path fill="rgb(4,4,4)" stroke="rgb(4,4,4)" stroke-width="1" opacity="0.7450980392156863" d="M 190.5 207 L 209.5 227 L 190.5 207 Z " /><path fill="rgb(4,4,4)" stroke="rgb(4,4,4)" stroke-width="1" opacity="0.7450980392156863" d="M 46.5 208 L 45.5 210 L 46.5 208 Z " /><path fill="rgb(4,4,4)" stroke="rgb(4,4,4)" stroke-width="1" opacity="0.7450980392156863" d="M 98.5 209 L 97.5 211 L 98.5 209 Z " /><path fill="rgb(4,4,4)" stroke="rgb(4,4,4)" stroke-width="1" opacity="0.7450980392156863" d="M 128.5 210 L 130.5 213 L 128.5 210 Z " /><path fill="rgb(4,4,4)" stroke="rgb(4,4,4)" stroke-width="1" opacity="0.7450980392156863" d="M 96.5 212 L 95.5 214 L 96.5 212 Z " /><path fill="rgb(4,4,4)" stroke="rgb(4,4,4)" stroke-width="1" opacity="0.7450980392156863" d="M 94.5 215 L 93.5 217 L 94.5 215 Z " /><path fill="rgb(4,4,4)" stroke="rgb(4,4,4)" stroke-width="1" opacity="0.7450980392156863" d="M 112.5 215 L 113 222.5 L 112 222.5 L 112.5 215 Z " /><path fill="rgb(4,4,4)" stroke="rgb(4,4,4)" stroke-width="1" opacity="0.7450980392156863" d="M 92.5 218 L 90.5 221 L 92.5 218 Z " /><path fill="rgb(4,4,4)" stroke="rgb(4,4,4)" stroke-width="1" opacity="0.7450980392156863" d="M 88.5 221 Q 91.8 222.8 88 224.5 L 87.5 226 L 87 224.5 Q 90.1 222.8 88.5 221 Z " /><path fill="rgb(4,4,4)" stroke="rgb(4,4,4)" stroke-width="1" opacity="0.7450980392156863" d="M 40.5 224 L 41 240.5 L 40 240.5 L 40.5 224 Z " /><path fill="rgb(4,4,4)" stroke="rgb(4,4,4)" stroke-width="1" opacity="0.7450980392156863" d="M 169.5 228 L 170.5 230 L 169.5 228 Z " /><path fill="rgb(4,4,4)" stroke="rgb(4,4,4)" stroke-width="1" opacity="0.7450980392156863" d="M 187.5 230 L 189 241.5 L 188 242.5 L 187.5 271 L 187.5 230 Z " /><path fill="rgb(4,4,4)" stroke="rgb(4,4,4)" stroke-width="1" opacity="0.7450980392156863" d="M 173.5 231 L 177.5 236 L 173.5 231 Z " /><path fill="rgb(4,4,4)" stroke="rgb(4,4,4)" stroke-width="1" opacity="0.7450980392156863" d="M 119.5 236 L 120.5 238 L 119.5 236 Z " /><path fill="rgb(4,4,4)" stroke="rgb(4,4,4)" stroke-width="1" opacity="0.7450980392156863" d="M 218.5 236 L 233.5 252 L 218.5 236 Z " /><path fill="rgb(4,4,4)" stroke="rgb(4,4,4)" stroke-width="1" opacity="0.7450980392156863" d="M 178.5 237 L 179.5 239 L 178.5 237 Z " /><path fill="rgb(4,4,4)" stroke="rgb(4,4,4)" stroke-width="1" opacity="0.7450980392156863" d="M 123.5 239 L 124.5 241 L 123.5 239 Z " /><path fill="rgb(4,4,4)" stroke="rgb(4,4,4)" stroke-width="1" opacity="0.7450980392156863" d="M 128.5 242 L 129.5 244 L 128.5 242 Z " /><path fill="rgb(4,4,4)" stroke="rgb(4,4,4)" stroke-width="1" opacity="0.7450980392156863" d="M 118.5 247 L 120 247.5 L 118 248.5 L 119 251.5 L 118 251.5 L 117.5 249 L 114 251.5 L 118.5 247 Z " /><path fill="rgb(4,4,4)" stroke="rgb(4,4,4)" stroke-width="1" opacity="0.7450980392156863" d="M 104.5 251 L 105 257.5 L 104 257.5 L 104.5 251 Z " /><path fill="rgb(4,4,4)" stroke="rgb(4,4,4)" stroke-width="1" opacity="0.7450980392156863" d="M 181.5 252 L 182 254.5 L 181 254.5 L 181.5 252 Z " /><path fill="rgb(4,4,4)" stroke="rgb(4,4,4)" stroke-width="1" opacity="0.7450980392156863" d="M 45.5 255 L 46.5 257 L 45.5 255 Z " /><path fill="rgb(4,4,4)" stroke="rgb(4,4,4)" stroke-width="1" opacity="0.7450980392156863" d="M 118.5 255 L 119 258.5 L 118 258.5 L 118.5 255 Z " /><path fill="rgb(4,4,4)" stroke="rgb(4,4,4)" stroke-width="1" opacity="0.7450980392156863" d="M 108.5 256 L 108 257.5 L 110.5 261 L 107 257.5 L 108.5 256 Z " /><path fill="rgb(4,4,4)" stroke="rgb(4,4,4)" stroke-width="1" opacity="0.7450980392156863" d="M 165.5 256 L 166.5 258 L 165.5 256 Z " /><path fill="rgb(4,4,4)" stroke="rgb(4,4,4)" stroke-width="1" opacity="0.7450980392156863" d="M 193.5 256 L 194.5 258 L 193.5 256 Z " /><path fill="rgb(4,4,4)" stroke="rgb(4,4,4)" stroke-width="1" opacity="0.7450980392156863" d="M 48.5 259 L 52.5 264 L 48.5 259 Z " /><path fill="rgb(4,4,4)" stroke="rgb(4,4,4)" stroke-width="1" opacity="0.7450980392156863" d="M 97.5 259 L 95.5 262 L 97.5 259 Z " /><path fill="rgb(4,4,4)" stroke="rgb(4,4,4)" stroke-width="1" opacity="0.7450980392156863" d="M 179.5 259 L 178.5 261 L 179.5 259 Z " /><path fill="rgb(4,4,4)" stroke="rgb(4,4,4)" stroke-width="1" opacity="0.7450980392156863" d="M 65.5 262 L 66 264.5 L 65 264.5 L 65.5 262 Z " /><path fill="rgb(4,4,4)" stroke="rgb(4,4,4)" stroke-width="1" opacity="0.7450980392156863" d="M 103.5 262 L 102.5 264 L 103.5 262 Z " /><path fill="rgb(4,4,4)" stroke="rgb(4,4,4)" stroke-width="1" opacity="0.7450980392156863" d="M 113.5 262 L 114.5 264 L 113.5 262 Z " /><path fill="rgb(4,4,4)" stroke="rgb(4,4,4)" stroke-width="1" opacity="0.7450980392156863" d="M 177.5 262 L 173.5 267 L 177.5 262 Z " /><path fill="rgb(4,4,4)" stroke="rgb(4,4,4)" stroke-width="1" opacity="0.7450980392156863" d="M 197.5 262 L 203.5 269 L 197.5 262 Z " /><path fill="rgb(4,4,4)" stroke="rgb(4,4,4)" stroke-width="1" opacity="0.7450980392156863" d="M 54.5 264 L 55.5 266 L 54.5 264 Z " /><path fill="rgb(4,4,4)" stroke="rgb(4,4,4)" stroke-width="1" opacity="0.7450980392156863" d="M 100.5 264 L 99.5 266 L 100.5 264 Z " /><path fill="rgb(4,4,4)" stroke="rgb(4,4,4)" stroke-width="1" opacity="0.7450980392156863" d="M 116.5 264 L 117.5 266 L 116.5 264 Z " /><path fill="rgb(4,4,4)" stroke="rgb(4,4,4)" stroke-width="1" opacity="0.7450980392156863" d="M 121.5 264 L 125 267.5 L 123.5 269 L 124 267.5 L 121.5 264 Z " /><path fill="rgb(4,4,4)" stroke="rgb(4,4,4)" stroke-width="1" opacity="0.7450980392156863" d="M 90.5 266 L 89.5 268 L 90.5 266 Z " /><path fill="rgb(4,4,4)" stroke="rgb(4,4,4)" stroke-width="1" opacity="0.7450980392156863" d="M 171.5 267 L 170.5 269 L 171.5 267 Z " /><path fill="rgb(4,4,4)" stroke="rgb(4,4,4)" stroke-width="1" opacity="0.7450980392156863" d="M 87.5 268 L 88.5 270 Q 85.7 270.7 87.5 268 Z " /><path fill="rgb(4,4,4)" stroke="rgb(4,4,4)" stroke-width="1" opacity="0.7450980392156863" d="M 126.5 268 L 133 271.5 L 131.5 272 L 126.5 269 L 125 269.5 L 126.5 268 Z " /><path fill="rgb(4,4,4)" stroke="rgb(4,4,4)" stroke-width="1" opacity="0.7450980392156863" d="M 69.5 269 L 73 270.5 L 67.5 271 L 67.5 270 L 69.5 269 Z " /><path fill="rgb(4,4,4)" stroke="rgb(4,4,4)" stroke-width="1" opacity="0.7450980392156863" d="M 84.5 269 L 86 269.5 L 81.5 271 L 81.5 270 L 84.5 269 Z " /><path fill="rgb(4,4,4)" stroke="rgb(4,4,4)" stroke-width="1" opacity="0.7450980392156863" d="M 162.5 269 L 161.5 271 L 162.5 269 Z " /><path fill="rgb(4,4,4)" stroke="rgb(4,4,4)" stroke-width="1" opacity="0.7450980392156863" d="M 205.5 269 L 206.5 271 L 205.5 269 Z " /><path fill="rgb(4,4,4)" stroke="rgb(4,4,4)" stroke-width="1" opacity="0.7450980392156863" d="M 159.5 271 L 160.5 273 Q 157.7 273.7 159.5 271 Z " /><path fill="rgb(4,4,4)" stroke="rgb(4,4,4)" stroke-width="1" opacity="0.7450980392156863" d="M 134.5 272 L 137 272.5 L 134.5 273 L 134.5 272 Z " /><path fill="rgb(4,4,4)" stroke="rgb(4,4,4)" stroke-width="1" opacity="0.7450980392156863" d="M 156.5 272 L 155.5 274 L 140 273.5 L 155.5 273 L 156.5 272 Z " /><path fill="rgb(4,4,4)" stroke="rgb(4,4,4)" stroke-width="1" opacity="0.7450980392156863" d="M 131.5 292 L 134 292.5 L 131.5 293 L 131.5 292 Z " /><path fill="rgb(4,4,4)" stroke="rgb(4,4,4)" stroke-width="1" opacity="0.7450980392156863" d="M 152.5 292 L 153 311.5 L 152 311.5 L 152.5 292 Z " /><path fill="rgb(4,4,4)" stroke="rgb(4,4,4)" stroke-width="1" opacity="0.7450980392156863" d="M 161.5 292 Q 166.8 290.8 168 293.5 L 166.5 296 L 167 294.5 Q 167.8 291.9 164.5 293 L 162.5 293 L 161.5 292 Z " /><path fill="rgb(4,4,4)" stroke="rgb(4,4,4)" stroke-width="1" opacity="0.7450980392156863" d="M 239.5 292 L 242 293.5 L 241.5 309 L 241 293 L 239.5 292 Z " /><path fill="rgb(4,4,4)" stroke="rgb(4,4,4)" stroke-width="1" opacity="0.7450980392156863" d="M 248.5 292 L 251 293.5 L 250.5 299 L 249 296.5 L 250 293 L 248 293.5 L 248.5 295 Q 245.5 293.5 248.5 292 Z " /><path fill="rgb(4,4,4)" stroke="rgb(4,4,4)" stroke-width="1" opacity="0.7450980392156863" d="M 298.5 292 L 300.5 293 L 303.5 292 Q 305.8 292.8 305 296.5 L 304 296.5 Q 305.7 291.7 301.5 293 L 301.5 295 L 298.5 292 Z " /><path fill="rgb(4,4,4)" stroke="rgb(4,4,4)" stroke-width="1" opacity="0.7450980392156863" d="M 326.5 292 L 332 292.5 L 329.5 294 L 326.5 293 L 325 293.5 L 326.5 292 Z " /><path fill="rgb(4,4,4)" stroke="rgb(4,4,4)" stroke-width="1" opacity="0.7450980392156863" d="M 333.5 292 L 336 292.5 L 333.5 293 L 333.5 292 Z " /><path fill="rgb(4,4,4)" stroke="rgb(4,4,4)" stroke-width="1" opacity="0.7450980392156863" d="M 338.5 292 L 340 293.5 L 340 312.5 L 339 312.5 L 339 293.5 L 338.5 292 Z " /><path fill="rgb(4,4,4)" stroke="rgb(4,4,4)" stroke-width="1" opacity="0.7450980392156863" d="M 341.5 292 L 347 292.5 L 342.5 294 L 341.5 292 Z " /><path fill="rgb(4,4,4)" stroke="rgb(4,4,4)" stroke-width="1" opacity="0.7450980392156863" d="M 349.5 292 L 353 292.5 L 349 293 L 348.5 300 L 348 297 L 344 294.5 L 346.5 296 L 348 294.5 L 349.5 292 Z " /><path fill="rgb(4,4,4)" stroke="rgb(4,4,4)" stroke-width="1" opacity="0.7450980392156863" d="M 392.5 292 L 393 300.5 L 392 300.5 L 390 295.5 L 392 295.5 L 392.5 292 Z " /><path fill="rgb(4,4,4)" stroke="rgb(4,4,4)" stroke-width="1" opacity="0.7450980392156863" d="M 98.5 293 L 100 294.5 L 100 313 L 98 312.5 L 99 311.5 L 99 294.5 L 98.5 293 Z " /><path fill="rgb(4,4,4)" stroke="rgb(4,4,4)" stroke-width="1" opacity="0.7450980392156863" d="M 116 293 L 121 293.5 L 116.5 295 L 116 293 Z " /><path fill="rgb(4,4,4)" stroke="rgb(4,4,4)" stroke-width="1" opacity="0.7450980392156863" d="M 145.5 293 L 147.5 296 L 145.5 293 Z " /><path fill="rgb(4,4,4)" stroke="rgb(4,4,4)" stroke-width="1" opacity="0.7450980392156863" d="M 169.5 293 L 170 311.5 L 169 311.5 L 169.5 293 Z " /><path fill="rgb(4,4,4)" stroke="rgb(4,4,4)" stroke-width="1" opacity="0.7450980392156863" d="M 184.5 293 L 185 294.5 L 184.5 297 Q 181.8 295.7 184 294.5 L 184.5 293 Z " /><path fill="rgb(4,4,4)" stroke="rgb(4,4,4)" stroke-width="1" opacity="0.7450980392156863" d="M 219 293 L 221 293.5 L 220 296.5 L 223 298.5 L 221.5 299 Q 218 297.7 219 293 Z " /><path fill="rgb(4,4,4)" stroke="rgb(4,4,4)" stroke-width="1" opacity="0.7450980392156863" d="M 227.5 293 L 230.5 297 L 227.5 293 Z " /><path fill="rgb(4,4,4)" stroke="rgb(4,4,4)" stroke-width="1" opacity="0.7450980392156863" d="M 257.5 293 L 259 293.5 L 259 313 L 257 312.5 L 258 311.5 L 258 294.5 L 257.5 293 Z " /><path fill="rgb(4,4,4)" stroke="rgb(4,4,4)" stroke-width="1" opacity="0.7450980392156863" d="M 275.5 293 L 277 294.5 L 277 311.5 L 278 312.5 L 276 313 L 276 294.5 L 275.5 293 Z " /><path fill="rgb(4,4,4)" stroke="rgb(4,4,4)" stroke-width="1" opacity="0.7450980392156863" d="M 282.5 293 Q 285.5 292.1 284 296.5 L 286 296.5 L 283 298 L 282.5 293 Z " /><path fill="rgb(4,4,4)" stroke="rgb(4,4,4)" stroke-width="1" opacity="0.7450980392156863" d="M 295.5 293 L 296 312.5 L 295 312.5 L 295.5 293 Z " /><path fill="rgb(4,4,4)" stroke="rgb(4,4,4)" stroke-width="1" opacity="0.7450980392156863" d="M 311 293 L 313 293.5 L 311 294.5 L 311 293 Z " /><path fill="rgb(4,4,4)" stroke="rgb(4,4,4)" stroke-width="1" opacity="0.7450980392156863" d="M 319.5 293 L 322 294.5 L 322.5 293 L 323 297.5 L 322 297.5 L 319.5 293 Z " /><path fill="rgb(4,4,4)" stroke="rgb(4,4,4)" stroke-width="1" opacity="0.7450980392156863" d="M 368.5 293 L 368 294.5 L 367.5 311 L 367 294.5 L 368.5 293 Z " /><path fill="rgb(4,4,4)" stroke="rgb(4,4,4)" stroke-width="1" opacity="0.7450980392156863" d="M 96.5 294 L 94.5 297 L 96.5 294 Z " /><path fill="rgb(4,4,4)" stroke="rgb(4,4,4)" stroke-width="1" opacity="0.7450980392156863" d="M 137.5 294 L 138 312.5 L 137 312.5 L 137.5 294 Z " /><path fill="rgb(4,4,4)" stroke="rgb(4,4,4)" stroke-width="1" opacity="0.7450980392156863" d="M 193.5 294 L 194 312.5 L 193 312.5 L 193.5 294 Z " /><path fill="rgb(4,4,4)" stroke="rgb(4,4,4)" stroke-width="1" opacity="0.7450980392156863" d="M 255.5 294 L 253.5 297 L 255.5 294 Z " /><path fill="rgb(4,4,4)" stroke="rgb(4,4,4)" stroke-width="1" opacity="0.7450980392156863" d="M 273.5 294 L 272.5 296 L 273.5 294 Z " /><path fill="rgb(4,4,4)" stroke="rgb(4,4,4)" stroke-width="1" opacity="0.7450980392156863" d="M 309.5 294 L 308.5 296 L 309.5 294 Z " /><path fill="rgb(4,4,4)" stroke="rgb(4,4,4)" stroke-width="1" opacity="0.7450980392156863" d="M 327.5 294 L 325.5 297 L 327.5 294 Z " /><path fill="rgb(4,4,4)" stroke="rgb(4,4,4)" stroke-width="1" opacity="0.7450980392156863" d="M 370.5 294 L 371.5 296 L 370.5 294 Z " /><path fill="rgb(4,4,4)" stroke="rgb(4,4,4)" stroke-width="1" opacity="0.7450980392156863" d="M 106.5 295 L 107.5 297 L 109 296.5 L 105 299.5 Q 108.5 298 106 296.5 L 106.5 295 Z " /><path fill="rgb(4,4,4)" stroke="rgb(4,4,4)" stroke-width="1" opacity="0.7450980392156863" d="M 265.5 295 L 267 297.5 L 265 296.5 L 265.5 295 Z " /><path fill="rgb(4,4,4)" stroke="rgb(4,4,4)" stroke-width="1" opacity="0.7450980392156863" d="M 289.5 296 L 290 299.5 L 289 299.5 L 289.5 296 Z " /><path fill="rgb(4,4,4)" stroke="rgb(4,4,4)" stroke-width="1" opacity="0.7450980392156863" d="M 307.5 297 L 309 302.5 L 307 301.5 L 307.5 297 Z " /><path fill="rgb(4,4,4)" stroke="rgb(4,4,4)" stroke-width="1" opacity="0.7450980392156863" d="M 377.5 297 L 392 310.5 L 392.5 303 L 393 312.5 L 377.5 297 Z " /><path fill="rgb(4,4,4)" stroke="rgb(4,4,4)" stroke-width="1" opacity="0.7450980392156863" d="M 215.5 298 L 216 300.5 L 215 300.5 L 215.5 298 Z " /><path fill="rgb(4,4,4)" stroke="rgb(4,4,4)" stroke-width="1" opacity="0.7450980392156863" d="M 356.5 299 L 357 305.5 L 356 305.5 L 356.5 299 Z " /><path fill="rgb(4,4,4)" stroke="rgb(4,4,4)" stroke-width="1" opacity="0.7450980392156863" d="M 373.5 299 L 374 306.5 L 373 306.5 L 373.5 299 Z " /><path fill="rgb(4,4,4)" stroke="rgb(4,4,4)" stroke-width="1" opacity="0.7450980392156863" d="M 165.5 300 L 166 305 L 164 304.5 L 165 302.5 Q 162.8 301.3 165.5 300 Z " /><path fill="rgb(4,4,4)" stroke="rgb(4,4,4)" stroke-width="1" opacity="0.7450980392156863" d="M 182.5 300 L 183 305 L 178 302.5 L 179.5 302 L 182 303.5 L 181 301.5 L 182.5 300 Z " /><path fill="rgb(4,4,4)" stroke="rgb(4,4,4)" stroke-width="1" opacity="0.7450980392156863" d="M 348.5 301 L 349 304.5 L 348 304.5 L 348.5 301 Z " /><path fill="rgb(4,4,4)" stroke="rgb(4,4,4)" stroke-width="1" opacity="0.7450980392156863" d="M 161.5 302 L 162.5 304 L 161.5 302 Z " /><path fill="rgb(4,4,4)" stroke="rgb(4,4,4)" stroke-width="1" opacity="0.7450980392156863" d="M 216.5 302 L 219.5 306 L 216.5 302 Z " /><path fill="rgb(4,4,4)" stroke="rgb(4,4,4)" stroke-width="1" opacity="0.7450980392156863" d="M 231.5 302 L 232.5 304 L 231.5 302 Z " /><path fill="rgb(4,4,4)" stroke="rgb(4,4,4)" stroke-width="1" opacity="0.7450980392156863" d="M 297.5 302 L 300 303.5 L 298.5 303 L 297.5 302 Z " /><path fill="rgb(4,4,4)" stroke="rgb(4,4,4)" stroke-width="1" opacity="0.7450980392156863" d="M 143.5 303 L 145 303.5 L 141.5 305 L 141.5 304 L 143.5 303 Z " /><path fill="rgb(4,4,4)" stroke="rgb(4,4,4)" stroke-width="1" opacity="0.7450980392156863" d="M 199.5 303 L 201 303.5 L 197.5 305 L 197.5 304 L 199.5 303 Z " /><path fill="rgb(4,4,4)" stroke="rgb(4,4,4)" stroke-width="1" opacity="0.7450980392156863" d="M 262 304 L 265 304.5 L 263 305 L 263 311.5 L 264.5 312 L 264.5 313 L 262 312.5 L 262 304 Z " /><path fill="rgb(4,4,4)" stroke="rgb(4,4,4)" stroke-width="1" opacity="0.7450980392156863" d="M 310.5 304 L 311.5 306 L 310.5 304 Z " /><path fill="rgb(4,4,4)" stroke="rgb(4,4,4)" stroke-width="1" opacity="0.7450980392156863" d="M 145.5 305 L 146.5 307 L 145.5 305 Z " /><path fill="rgb(4,4,4)" stroke="rgb(4,4,4)" stroke-width="1" opacity="0.7450980392156863" d="M 201.5 305 L 202.5 307 L 201.5 305 Z " /><path fill="rgb(4,4,4)" stroke="rgb(4,4,4)" stroke-width="1" opacity="0.7450980392156863" d="M 233.5 305 L 234 308.5 L 233 308.5 L 233.5 305 Z " /><path fill="rgb(4,4,4)" stroke="rgb(4,4,4)" stroke-width="1" opacity="0.7450980392156863" d="M 375.5 305 L 377 307.5 L 375.5 313 L 375.5 305 Z " /><path fill="rgb(4,4,4)" stroke="rgb(4,4,4)" stroke-width="1" opacity="0.7450980392156863" d="M 109.5 306 L 111 312.5 L 110 312.5 L 109.5 311 L 107 311.5 Q 107.8 313.8 105.5 313 L 109 308.5 L 109.5 306 Z " /><path fill="rgb(4,4,4)" stroke="rgb(4,4,4)" stroke-width="1" opacity="0.7450980392156863" d="M 325.5 306 L 326 308.5 L 325 308.5 L 325.5 306 Z " /><path fill="rgb(4,4,4)" stroke="rgb(4,4,4)" stroke-width="1" opacity="0.7450980392156863" d="M 139.5 307 L 140.5 309 L 139.5 307 Z " /><path fill="rgb(4,4,4)" stroke="rgb(4,4,4)" stroke-width="1" opacity="0.7450980392156863" d="M 195.5 307 L 196.5 309 L 195.5 307 Z " /><path fill="rgb(4,4,4)" stroke="rgb(4,4,4)" stroke-width="1" opacity="0.7450980392156863" d="M 216.5 307 L 215.5 311 Q 212 309 216.5 307 Z " /><path fill="rgb(4,4,4)" stroke="rgb(4,4,4)" stroke-width="1" opacity="0.7450980392156863" d="M 280.5 307 L 281 312 L 283 312.5 L 280 313 L 280.5 307 Z " /><path fill="rgb(4,4,4)" stroke="rgb(4,4,4)" stroke-width="1" opacity="0.7450980392156863" d="M 203.5 308 L 204.5 310 L 203.5 308 Z " /><path fill="rgb(4,4,4)" stroke="rgb(4,4,4)" stroke-width="1" opacity="0.7450980392156863" d="M 228.5 308 L 229.5 310 L 228.5 308 Z " /><path fill="rgb(4,4,4)" stroke="rgb(4,4,4)" stroke-width="1" opacity="0.7450980392156863" d="M 304.5 308 L 305 312.5 L 304 312.5 L 303.5 310 L 301 311.5 L 304.5 308 Z " /><path fill="rgb(4,4,4)" stroke="rgb(4,4,4)" stroke-width="1" opacity="0.7450980392156863" d="M 319.5 308 L 322 309.5 Q 323.5 313.9 320.5 313 L 321 311.5 Q 322.1 308.2 319.5 309 L 319.5 308 Z " /><path fill="rgb(4,4,4)" stroke="rgb(4,4,4)" stroke-width="1" opacity="0.7450980392156863" d="M 357.5 308 L 360.5 312 L 357.5 308 Z " /><path fill="rgb(4,4,4)" stroke="rgb(4,4,4)" stroke-width="1" opacity="0.7450980392156863" d="M 94.5 309 L 95.5 311 L 94.5 309 Z " /><path fill="rgb(4,4,4)" stroke="rgb(4,4,4)" stroke-width="1" opacity="0.7450980392156863" d="M 253.5 309 L 254.5 311 L 253.5 309 Z " /><path fill="rgb(4,4,4)" stroke="rgb(4,4,4)" stroke-width="1" opacity="0.7450980392156863" d="M 306.5 309 L 311 312.5 L 309.5 312 L 306.5 309 Z " /><path fill="rgb(4,4,4)" stroke="rgb(4,4,4)" stroke-width="1" opacity="0.7450980392156863" d="M 348.5 309 L 349 312.5 L 348 312.5 L 348.5 309 Z " /><path fill="rgb(4,4,4)" stroke="rgb(4,4,4)" stroke-width="1" opacity="0.7450980392156863" d="M 112.5 310 L 114.5 313 L 112.5 310 Z " /><path fill="rgb(4,4,4)" stroke="rgb(4,4,4)" stroke-width="1" opacity="0.7450980392156863" d="M 141.5 310 L 142.5 312 L 141.5 310 Z " /><path fill="rgb(4,4,4)" stroke="rgb(4,4,4)" stroke-width="1" opacity="0.7450980392156863" d="M 165.5 310 L 164.5 312 L 165.5 310 Z " /><path fill="rgb(4,4,4)" stroke="rgb(4,4,4)" stroke-width="1" opacity="0.7450980392156863" d="M 182.5 310 L 181.5 312 L 182.5 310 Z " /><path fill="rgb(4,4,4)" stroke="rgb(4,4,4)" stroke-width="1" opacity="0.7450980392156863" d="M 197.5 310 L 198.5 312 L 197.5 310 Z " /><path fill="rgb(4,4,4)" stroke="rgb(4,4,4)" stroke-width="1" opacity="0.7450980392156863" d="M 217.5 310 L 219 312.5 L 217 311.5 L 217.5 310 Z " /><path fill="rgb(4,4,4)" stroke="rgb(4,4,4)" stroke-width="1" opacity="0.7450980392156863" d="M 232.5 310 L 230.5 313 Q 228.3 313.8 229 311.5 Q 230.8 313.1 232.5 310 Z " /><path fill="rgb(4,4,4)" stroke="rgb(4,4,4)" stroke-width="1" opacity="0.7450980392156863" d="M 324.5 310 L 323.5 312 L 324.5 310 Z " /><path fill="rgb(4,4,4)" stroke="rgb(4,4,4)" stroke-width="1" opacity="0.7450980392156863" d="M 149.5 311 L 150.5 313 L 149.5 311 Z " /><path fill="rgb(4,4,4)" stroke="rgb(4,4,4)" stroke-width="1" opacity="0.7450980392156863" d="M 205.5 311 L 206.5 313 L 205.5 311 Z " /><path fill="rgb(4,4,4)" stroke="rgb(4,4,4)" stroke-width="1" opacity="0.7450980392156863" d="M 247.5 311 L 249 311.5 L 246.5 313 L 247.5 311 Z " /><path fill="rgb(0,0,0)" stroke="rgb(0,0,0)" stroke-width="1" opacity="0.996078431372549" d="M 177.5 192 L 207.5 192 L 251 235.5 L 250.5 269 L 181 197.5 L 177.5 192 Z " /><path fill="rgb(0,0,0)" stroke="rgb(0,0,0)" stroke-width="1" opacity="0.996078431372549" d="M 234.5 192 L 251 192 L 251 218.5 L 250 218.5 L 247 207.5 L 237.5 195 L 234.5 192 Z " /><path fill="rgb(0,0,0)" stroke="rgb(0,0,0)" stroke-width="1" opacity="0.996078431372549" d="M 151.5 194 L 171 195 L 170.5 211 L 159.5 198 L 151.5 195 L 151.5 194 Z " /><path fill="rgb(0,0,0)" stroke="rgb(0,0,0)" stroke-width="1" opacity="0.996078431372549" d="M 65.5 195 L 68 195.5 L 65 200.5 L 65 264.5 L 69 269.5 L 65.5 270 Q 53.7 266.3 47 257.5 L 41 243.5 L 41 220.5 Q 44.5 207 54.5 200 L 65.5 195 Z " /><path fill="rgb(0,0,0)" stroke="rgb(0,0,0)" stroke-width="1" opacity="0.996078431372549" d="M 86.5 195 L 103 201 L 102 204.5 L 88.5 223 L 89 221.5 L 92 209.5 L 92 204.5 L 89 197 L 86.5 195 Z " /><path fill="rgb(0,0,0)" stroke="rgb(0,0,0)" stroke-width="1" opacity="0.996078431372549" d="M 134.5 195 L 136 195.5 L 128 201.5 L 127 208.5 L 130.5 213 L 138.5 217 L 160.5 224 Q 171.5 228 178 236.5 Q 182.2 241.8 182 251.5 Q 180.3 262.3 172.5 267 L 160.5 272 L 160.5 271 L 166 266.5 L 168 260.5 L 165.5 256 L 130.5 244 L 117 233.5 Q 111.3 227.2 113 213.5 Q 115.4 204.4 122.5 200 L 134.5 195 Z " /><path fill="rgb(0,0,0)" stroke="rgb(0,0,0)" stroke-width="1" opacity="0.996078431372549" d="M 188.5 242 Q 191.4 260.1 203.5 269 L 206 270.5 L 188 271 L 188.5 242 Z " /><path fill="rgb(0,0,0)" stroke="rgb(0,0,0)" stroke-width="1" opacity="0.996078431372549" d="M 104.5 245 L 105 250.5 L 104 251.5 L 104 261.5 L 101.5 264 Q 96.6 268.1 88.5 269 L 88.5 268 L 98 259.5 L 104.5 245 Z " /><path fill="rgb(0,0,0)" stroke="rgb(0,0,0)" stroke-width="1" opacity="0.996078431372549" d="M 118.5 248 L 118 249.5 L 118 258.5 L 124.5 268 L 127 269.5 L 125.5 269 Q 114.6 265.4 108 257.5 L 118.5 248 Z " /><path fill="rgb(0,0,0)" stroke="rgb(0,0,0)" stroke-width="1" opacity="0.996078431372549" d="M 373.5 292 L 380.5 292 L 392 303.5 L 391.5 311 L 373.5 292 Z " /><path fill="rgb(0,0,0)" stroke="rgb(0,0,0)" stroke-width="1" opacity="0.996078431372549" d="M 388.5 292 Q 393.8 290.3 392 295.5 L 390 294.5 Q 390.8 292.3 388.5 293 L 388.5 292 Z " /><path fill="rgb(0,0,0)" stroke="rgb(0,0,0)" stroke-width="1" opacity="0.996078431372549" d="M 99.5 293 L 99 294.5 L 99 311.5 L 97.5 312 Q 91.8 309.1 93 299.5 L 97.5 294 L 99.5 293 Z " /><path fill="rgb(0,0,0)" stroke="rgb(0,0,0)" stroke-width="1" opacity="0.996078431372549" d="M 121.5 293 Q 124.1 292.2 123 295.5 L 128 313 L 122 313 L 122 310.5 L 117 294 L 121.5 293 Z " /><path fill="rgb(0,0,0)" stroke="rgb(0,0,0)" stroke-width="1" opacity="0.996078431372549" d="M 131 293 L 138 293.5 L 137 294.5 L 137 313 L 131.5 313 L 131 312.5 L 131 293 Z " /><path fill="rgb(0,0,0)" stroke="rgb(0,0,0)" stroke-width="1" opacity="0.996078431372549" d="M 142 293 Q 146.7 292.3 148 296.5 Q 149.3 302.6 146.5 302 L 142.5 304 L 142 293 Z " /><path fill="rgb(0,0,0)" stroke="rgb(0,0,0)" stroke-width="1" opacity="0.996078431372549" d="M 153 293 L 158.5 293 L 159 293.5 L 159 313 L 152 312.5 L 153 311.5 L 153 293 Z " /><path fill="rgb(0,0,0)" stroke="rgb(0,0,0)" stroke-width="1" opacity="0.996078431372549" d="M 164.5 293 Q 167.8 291.9 167 294.5 L 168 296.5 L 167 296.5 Q 167.8 294.3 165.5 295 L 164.5 293 Z " /><path fill="rgb(0,0,0)" stroke="rgb(0,0,0)" stroke-width="1" opacity="0.996078431372549" d="M 170 293 L 175.5 293 L 176 293.5 L 176 313 L 169 312.5 L 170 311.5 L 170 293 Z " /><path fill="rgb(0,0,0)" stroke="rgb(0,0,0)" stroke-width="1" opacity="0.996078431372549" d="M 181.5 293 Q 184.8 291.9 184 294.5 L 184.5 296 L 181.5 293 Z " /><path fill="rgb(0,0,0)" stroke="rgb(0,0,0)" stroke-width="1" opacity="0.996078431372549" d="M 187 293 L 194 293.5 L 193 294.5 L 193 313 L 187.5 313 L 187 312.5 L 187 293 Z " /><path fill="rgb(0,0,0)" stroke="rgb(0,0,0)" stroke-width="1" opacity="0.996078431372549" d="M 198 293 L 203 294 L 204 302 L 198.5 304 L 198 293 Z " /><path fill="rgb(0,0,0)" stroke="rgb(0,0,0)" stroke-width="1" opacity="0.996078431372549" d="M 228.5 293 Q 232.3 291.8 231 295.5 L 228.5 293 Z " /><path fill="rgb(0,0,0)" stroke="rgb(0,0,0)" stroke-width="1" opacity="0.996078431372549" d="M 235 293 L 241 293 L 241 308.5 L 242 311 L 246 312.5 L 241.5 313 L 236 309.5 L 235 307.5 L 235 293 Z " /><path fill="rgb(0,0,0)" stroke="rgb(0,0,0)" stroke-width="1" opacity="0.996078431372549" d="M 248.5 293 Q 251.1 292.2 250 295.5 L 249 295.5 L 248.5 293 Z " /><path fill="rgb(0,0,0)" stroke="rgb(0,0,0)" stroke-width="1" opacity="0.996078431372549" d="M 276.5 293 L 276 294.5 L 275.5 312 L 272 309.5 L 270 301.5 L 271 297.5 L 274.5 294 L 276.5 293 Z " /><path fill="rgb(0,0,0)" stroke="rgb(0,0,0)" stroke-width="1" opacity="0.996078431372549" d="M 289 293 L 294.5 293 L 295 293.5 L 295 313 L 289 313 L 289 307.5 L 290 305.5 L 289 300.5 L 290 296.5 L 289 293 Z " /><path fill="rgb(0,0,0)" stroke="rgb(0,0,0)" stroke-width="1" opacity="0.996078431372549" d="M 301.5 293 Q 305.3 291.8 304 295.5 L 301.5 293 Z " /><path fill="rgb(0,0,0)" stroke="rgb(0,0,0)" stroke-width="1" opacity="0.996078431372549" d="M 320.5 293 Q 322.8 292.3 322 294.5 L 320.5 293 Z " /><path fill="rgb(0,0,0)" stroke="rgb(0,0,0)" stroke-width="1" opacity="0.996078431372549" d="M 326.5 293 L 329 293.5 L 325.5 296 L 325 294.5 L 326.5 293 Z " /><path fill="rgb(0,0,0)" stroke="rgb(0,0,0)" stroke-width="1" opacity="0.996078431372549" d="M 333 293 L 338.5 293 L 339 293.5 L 339 313 L 333.5 313 L 333 312.5 L 333 293 Z " /><path fill="rgb(0,0,0)" stroke="rgb(0,0,0)" stroke-width="1" opacity="0.996078431372549" d="M 343.5 293 Q 348.3 291.3 347 295.5 L 344.5 294 L 343.5 293 Z " /><path fill="rgb(0,0,0)" stroke="rgb(0,0,0)" stroke-width="1" opacity="0.996078431372549" d="M 349 293 L 354.5 293 L 355 293.5 L 355 313 L 349.5 313 L 349 312.5 L 349 293 Z " /><path fill="rgb(0,0,0)" stroke="rgb(0,0,0)" stroke-width="1" opacity="0.996078431372549" d="M 362.5 293 L 363 312 L 357 307.5 Q 355 297 360.5 294 L 362.5 293 Z " /><path fill="rgb(0,0,0)" stroke="rgb(0,0,0)" stroke-width="1" opacity="0.996078431372549" d="M 367.5 293 L 372 296.5 Q 374.5 300 373 307.5 L 370.5 311 L 367.5 312 L 368 310.5 L 368 294.5 L 367.5 293 Z " /><path fill="rgb(0,0,0)" stroke="rgb(0,0,0)" stroke-width="1" opacity="0.996078431372549" d="M 106.5 294 L 109 295.5 L 106 297.5 L 107 295.5 L 106.5 294 Z " /><path fill="rgb(0,0,0)" stroke="rgb(0,0,0)" stroke-width="1" opacity="0.996078431372549" d="M 218.5 294 L 221.5 299 Q 229.3 299.7 233 304.5 Q 234.3 310.8 230.5 312 L 228.5 308 Q 219.4 307.6 216 301.5 Q 215.2 295.7 218.5 294 Z " /><path fill="rgb(0,0,0)" stroke="rgb(0,0,0)" stroke-width="1" opacity="0.996078431372549" d="M 256.5 294 L 258 294.5 L 258 312 L 253 308.5 L 252 299.5 L 256.5 294 Z " /><path fill="rgb(0,0,0)" stroke="rgb(0,0,0)" stroke-width="1" opacity="0.996078431372549" d="M 265.5 294 L 268 295.5 L 265.5 299 L 265 297.5 L 266 295.5 L 265.5 294 Z " /><path fill="rgb(0,0,0)" stroke="rgb(0,0,0)" stroke-width="1" opacity="0.996078431372549" d="M 284 294 Q 286.7 292.9 286 295.5 L 284 296.5 L 284 294 Z " /><path fill="rgb(0,0,0)" stroke="rgb(0,0,0)" stroke-width="1" opacity="0.996078431372549" d="M 310.5 294 L 313.5 299 Q 320.4 299.6 324 303.5 L 325 309.5 L 322 311.5 L 320.5 308 L 309 304 Q 307.4 301.9 308 296.5 L 310.5 294 Z " /><path fill="rgb(0,0,0)" stroke="rgb(0,0,0)" stroke-width="1" opacity="0.996078431372549" d="M 301.5 301 L 302 304 L 299 302.5 L 301.5 301 Z " /><path fill="rgb(0,0,0)" stroke="rgb(0,0,0)" stroke-width="1" opacity="0.996078431372549" d="M 162.5 302 Q 166.3 301 165 304 L 162.5 302 Z " /><path fill="rgb(0,0,0)" stroke="rgb(0,0,0)" stroke-width="1" opacity="0.996078431372549" d="M 180.5 302 Q 182.8 301.3 182 303.5 L 180.5 302 Z " /><path fill="rgb(0,0,0)" stroke="rgb(0,0,0)" stroke-width="1" opacity="0.996078431372549" d="M 281.5 304 L 287 305 L 287 312 L 281 312 L 281.5 304 Z " /><path fill="rgb(0,0,0)" stroke="rgb(0,0,0)" stroke-width="1" opacity="0.996078431372549" d="M 140.5 305 Q 147 304 148 308.5 L 150 312.5 L 143 313 L 139 306.5 L 140.5 305 Z " /><path fill="rgb(0,0,0)" stroke="rgb(0,0,0)" stroke-width="1" opacity="0.996078431372549" d="M 196.5 305 Q 202 304 203 307.5 L 206 312.5 L 199 313 L 195 306.5 L 196.5 305 Z " /><path fill="rgb(0,0,0)" stroke="rgb(0,0,0)" stroke-width="1" opacity="0.996078431372549" d="M 263 305 L 269 305 L 269 312 L 263 312 L 263 305 Z " /><path fill="rgb(0,0,0)" stroke="rgb(0,0,0)" stroke-width="1" opacity="0.996078431372549" d="M 216.5 308 L 217 310.5 L 215 309.5 L 216.5 308 Z " /><path fill="rgb(0,0,0)" stroke="rgb(0,0,0)" stroke-width="1" opacity="0.996078431372549" d="M 307.5 308 L 309 310.5 L 307 309.5 L 307.5 308 Z " /><path fill="rgb(0,0,0)" stroke="rgb(0,0,0)" stroke-width="1" opacity="0.996078431372549" d="M 376.5 308 L 378 312 L 380 312.5 L 376 313 L 376.5 308 Z " /><path fill="rgb(0,0,0)" stroke="rgb(0,0,0)" stroke-width="1" opacity="0.996078431372549" d="M 111.5 309 L 114 312.5 L 111 313 L 111.5 309 Z " /><path fill="rgb(0,0,0)" stroke="rgb(0,0,0)" stroke-width="1" opacity="0.996078431372549" d="M 167.5 309 L 168 310.5 L 167 313 L 163 312.5 L 167.5 309 Z " /><path fill="rgb(0,0,0)" stroke="rgb(0,0,0)" stroke-width="1" opacity="0.996078431372549" d="M 184.5 309 L 185 310.5 L 184 313 L 180 312.5 L 184.5 309 Z " /><path fill="rgb(0,0,0)" stroke="rgb(0,0,0)" stroke-width="1" opacity="0.996078431372549" d="M 108.5 310 L 107.5 312 L 108.5 310 Z " /><path fill="rgb(0,0,0)" stroke="rgb(0,0,0)" stroke-width="1" opacity="0.996078431372549" d="M 303.5 310 L 304 313 L 300 312.5 L 303.5 310 Z " /></svg>